<mxfile host="www.draw.io" modified="2020-03-09T04:21:12.852Z" agent="Mozilla/5.0 (Windows NT 10.0; Win64; x64) AppleWebKit/537.36 (KHTML, like Gecko) Chrome/80.0.3987.132 Safari/537.36" etag="ne3mAHFuiQHuber4-RkQ" version="12.8.1" type="github">
  <diagram id="IG_judcBSuWTVYjRMqxc" name="Page-1">
    <mxGraphModel dx="1019" dy="585" grid="1" gridSize="10" guides="1" tooltips="1" connect="1" arrows="1" fold="1" page="1" pageScale="1" pageWidth="827" pageHeight="1169" math="0" shadow="0">
      <root>
        <mxCell id="0" />
        <mxCell id="1" parent="0" />
        <mxCell id="VmF_ym8PHBI7USA4eRH4-1" style="edgeStyle=orthogonalEdgeStyle;rounded=0;html=1;exitX=1;exitY=0.5;entryX=0;entryY=0.25;labelBackgroundColor=none;endArrow=none;endFill=0;endSize=8;fontFamily=Verdana;fontSize=12;align=left;" edge="1" parent="1" source="VmF_ym8PHBI7USA4eRH4-5" target="VmF_ym8PHBI7USA4eRH4-16">
          <mxGeometry relative="1" as="geometry" />
        </mxCell>
        <mxCell id="VmF_ym8PHBI7USA4eRH4-2" value="1...1" style="text;html=1;align=center;verticalAlign=middle;resizable=0;points=[];labelBackgroundColor=#ffffff;" vertex="1" connectable="0" parent="VmF_ym8PHBI7USA4eRH4-1">
          <mxGeometry x="-0.9572" y="1" relative="1" as="geometry">
            <mxPoint as="offset" />
          </mxGeometry>
        </mxCell>
        <mxCell id="VmF_ym8PHBI7USA4eRH4-3" value="1...*" style="text;html=1;align=center;verticalAlign=middle;resizable=0;points=[];labelBackgroundColor=#ffffff;" vertex="1" connectable="0" parent="VmF_ym8PHBI7USA4eRH4-1">
          <mxGeometry x="0.9554" y="-1" relative="1" as="geometry">
            <mxPoint as="offset" />
          </mxGeometry>
        </mxCell>
        <mxCell id="VmF_ym8PHBI7USA4eRH4-4" style="edgeStyle=none;rounded=0;orthogonalLoop=1;jettySize=auto;html=1;entryX=1;entryY=0.25;entryDx=0;entryDy=0;targetPerimeterSpacing=8;exitX=0;exitY=0.25;exitDx=0;exitDy=0;" edge="1" parent="1" source="VmF_ym8PHBI7USA4eRH4-11" target="VmF_ym8PHBI7USA4eRH4-5">
          <mxGeometry relative="1" as="geometry">
            <mxPoint x="210" y="180" as="sourcePoint" />
          </mxGeometry>
        </mxCell>
        <mxCell id="VmF_ym8PHBI7USA4eRH4-5" value="&lt;p style=&quot;margin: 4px 0px 0px;&quot;&gt;&lt;span&gt;Department&lt;/span&gt;&lt;/p&gt;" style="verticalAlign=top;align=center;overflow=fill;fontSize=12;fontFamily=Helvetica;html=1;rounded=0;shadow=0;comic=0;labelBackgroundColor=none;strokeWidth=1;fontStyle=5" vertex="1" parent="1">
          <mxGeometry x="40" y="260" width="140" height="40" as="geometry" />
        </mxCell>
        <mxCell id="VmF_ym8PHBI7USA4eRH4-6" style="edgeStyle=orthogonalEdgeStyle;rounded=0;html=1;exitX=0.5;exitY=0;entryX=0.5;entryY=1;labelBackgroundColor=none;endArrow=none;endFill=0;endSize=8;fontFamily=Verdana;fontSize=12;align=left;exitDx=0;exitDy=0;entryDx=0;entryDy=0;" edge="1" parent="1" source="VmF_ym8PHBI7USA4eRH4-10" target="VmF_ym8PHBI7USA4eRH4-5">
          <mxGeometry relative="1" as="geometry">
            <Array as="points">
              <mxPoint x="110" y="370" />
              <mxPoint x="110" y="370" />
            </Array>
          </mxGeometry>
        </mxCell>
        <mxCell id="VmF_ym8PHBI7USA4eRH4-7" value="1...*" style="text;html=1;align=center;verticalAlign=middle;resizable=0;points=[];labelBackgroundColor=#ffffff;" vertex="1" connectable="0" parent="VmF_ym8PHBI7USA4eRH4-6">
          <mxGeometry x="0.8658" y="-1" relative="1" as="geometry">
            <mxPoint as="offset" />
          </mxGeometry>
        </mxCell>
        <mxCell id="VmF_ym8PHBI7USA4eRH4-8" value="0..*" style="text;html=1;align=center;verticalAlign=middle;resizable=0;points=[];labelBackgroundColor=#ffffff;" vertex="1" connectable="0" parent="VmF_ym8PHBI7USA4eRH4-6">
          <mxGeometry x="0.3548" y="-94" relative="1" as="geometry">
            <mxPoint x="-92" y="94" as="offset" />
          </mxGeometry>
        </mxCell>
        <mxCell id="VmF_ym8PHBI7USA4eRH4-9" value="Delongs" style="text;html=1;align=center;verticalAlign=middle;resizable=0;points=[];labelBackgroundColor=#ffffff;" vertex="1" connectable="0" parent="VmF_ym8PHBI7USA4eRH4-6">
          <mxGeometry x="-0.1406" y="-1" relative="1" as="geometry">
            <mxPoint as="offset" />
          </mxGeometry>
        </mxCell>
        <mxCell id="VmF_ym8PHBI7USA4eRH4-10" value="&lt;p style=&quot;margin: 4px 0px 0px;&quot;&gt;&lt;span&gt;Staff&lt;/span&gt;&lt;/p&gt;" style="verticalAlign=top;align=center;overflow=fill;fontSize=12;fontFamily=Helvetica;html=1;rounded=0;shadow=0;comic=0;labelBackgroundColor=none;strokeWidth=1;fontStyle=5" vertex="1" parent="1">
          <mxGeometry x="40" y="445" width="140" height="35" as="geometry" />
        </mxCell>
        <mxCell id="VmF_ym8PHBI7USA4eRH4-11" value="&lt;p style=&quot;margin: 4px 0px 0px;&quot;&gt;&lt;/p&gt;&lt;p style=&quot;margin: 0px ; margin-left: 8px&quot;&gt;&lt;span&gt;Sub-Department&lt;/span&gt;&lt;/p&gt;&lt;p style=&quot;margin: 0px ; margin-left: 8px&quot;&gt;&lt;br&gt;&lt;/p&gt;" style="verticalAlign=top;align=center;overflow=fill;fontSize=12;fontFamily=Helvetica;html=1;rounded=0;shadow=0;comic=0;labelBackgroundColor=none;strokeWidth=1;fontStyle=5" vertex="1" parent="1">
          <mxGeometry x="280" y="70" width="140" height="30" as="geometry" />
        </mxCell>
        <mxCell id="VmF_ym8PHBI7USA4eRH4-12" style="edgeStyle=orthogonalEdgeStyle;rounded=0;html=1;exitX=0;exitY=0.75;entryX=1;entryY=0.75;labelBackgroundColor=none;endArrow=none;endFill=0;endSize=8;fontFamily=Verdana;fontSize=12;align=left;" edge="1" parent="1" source="VmF_ym8PHBI7USA4eRH4-16" target="VmF_ym8PHBI7USA4eRH4-10">
          <mxGeometry relative="1" as="geometry" />
        </mxCell>
        <mxCell id="VmF_ym8PHBI7USA4eRH4-13" value="Cordinator" style="text;html=1;align=center;verticalAlign=middle;resizable=0;points=[];labelBackgroundColor=#ffffff;" vertex="1" connectable="0" parent="VmF_ym8PHBI7USA4eRH4-12">
          <mxGeometry x="-0.1849" y="-2" relative="1" as="geometry">
            <mxPoint as="offset" />
          </mxGeometry>
        </mxCell>
        <mxCell id="VmF_ym8PHBI7USA4eRH4-14" value="0...1" style="text;html=1;align=center;verticalAlign=middle;resizable=0;points=[];labelBackgroundColor=#ffffff;" vertex="1" connectable="0" parent="VmF_ym8PHBI7USA4eRH4-12">
          <mxGeometry x="0.8854" relative="1" as="geometry">
            <mxPoint as="offset" />
          </mxGeometry>
        </mxCell>
        <mxCell id="VmF_ym8PHBI7USA4eRH4-15" value="1...*" style="text;html=1;align=center;verticalAlign=middle;resizable=0;points=[];labelBackgroundColor=#ffffff;" vertex="1" connectable="0" parent="VmF_ym8PHBI7USA4eRH4-12">
          <mxGeometry x="-0.8551" relative="1" as="geometry">
            <mxPoint as="offset" />
          </mxGeometry>
        </mxCell>
        <mxCell id="VmF_ym8PHBI7USA4eRH4-16" value="&lt;p style=&quot;margin: 4px 0px 0px;&quot;&gt;&lt;span&gt;Program&lt;/span&gt;&lt;/p&gt;" style="verticalAlign=top;align=center;overflow=fill;fontSize=12;fontFamily=Helvetica;html=1;rounded=0;shadow=0;comic=0;labelBackgroundColor=none;strokeWidth=1;fontStyle=5" vertex="1" parent="1">
          <mxGeometry x="360" y="440" width="140" height="40" as="geometry" />
        </mxCell>
        <mxCell id="VmF_ym8PHBI7USA4eRH4-17" value="&lt;p style=&quot;margin: 4px 0px 0px;&quot;&gt;&lt;/p&gt;&lt;p style=&quot;margin: 0px ; margin-left: 8px&quot;&gt;&lt;span&gt;Time Period&lt;/span&gt;&lt;/p&gt;" style="verticalAlign=top;align=center;overflow=fill;fontSize=12;fontFamily=Helvetica;html=1;rounded=0;shadow=0;comic=0;labelBackgroundColor=none;strokeWidth=1;fontStyle=5" vertex="1" parent="1">
          <mxGeometry x="560" y="70" width="140" height="30" as="geometry" />
        </mxCell>
        <mxCell id="VmF_ym8PHBI7USA4eRH4-18" style="edgeStyle=none;rounded=0;orthogonalLoop=1;jettySize=auto;html=1;exitX=0.5;exitY=0;exitDx=0;exitDy=0;entryX=0.5;entryY=1;entryDx=0;entryDy=0;endArrow=none;endFill=0;targetPerimeterSpacing=8;" edge="1" parent="1" source="VmF_ym8PHBI7USA4eRH4-21" target="VmF_ym8PHBI7USA4eRH4-29">
          <mxGeometry relative="1" as="geometry" />
        </mxCell>
        <mxCell id="VmF_ym8PHBI7USA4eRH4-19" value="1...*" style="text;html=1;align=center;verticalAlign=middle;resizable=0;points=[];labelBackgroundColor=#ffffff;" vertex="1" connectable="0" parent="VmF_ym8PHBI7USA4eRH4-18">
          <mxGeometry x="0.8109" relative="1" as="geometry">
            <mxPoint as="offset" />
          </mxGeometry>
        </mxCell>
        <mxCell id="VmF_ym8PHBI7USA4eRH4-20" value="1...1" style="text;html=1;align=center;verticalAlign=middle;resizable=0;points=[];labelBackgroundColor=#ffffff;" vertex="1" connectable="0" parent="VmF_ym8PHBI7USA4eRH4-18">
          <mxGeometry x="-0.7709" relative="1" as="geometry">
            <mxPoint as="offset" />
          </mxGeometry>
        </mxCell>
        <mxCell id="VmF_ym8PHBI7USA4eRH4-21" value="&lt;span&gt;Facility&lt;/span&gt;" style="verticalAlign=top;align=center;overflow=fill;fontSize=12;fontFamily=Helvetica;html=1;rounded=0;shadow=0;comic=0;labelBackgroundColor=none;strokeWidth=1;fontStyle=5" vertex="1" parent="1">
          <mxGeometry x="310" y="650" width="140" height="30" as="geometry" />
        </mxCell>
        <mxCell id="VmF_ym8PHBI7USA4eRH4-22" style="edgeStyle=none;rounded=0;orthogonalLoop=1;jettySize=auto;html=1;exitX=1;exitY=0.5;exitDx=0;exitDy=0;entryX=0;entryY=0.5;entryDx=0;entryDy=0;targetPerimeterSpacing=8;endArrow=none;endFill=0;" edge="1" parent="1" source="VmF_ym8PHBI7USA4eRH4-25" target="VmF_ym8PHBI7USA4eRH4-21">
          <mxGeometry relative="1" as="geometry" />
        </mxCell>
        <mxCell id="VmF_ym8PHBI7USA4eRH4-23" value="1...1" style="text;html=1;align=center;verticalAlign=middle;resizable=0;points=[];labelBackgroundColor=#ffffff;" vertex="1" connectable="0" parent="VmF_ym8PHBI7USA4eRH4-22">
          <mxGeometry x="-0.816" y="-1" relative="1" as="geometry">
            <mxPoint as="offset" />
          </mxGeometry>
        </mxCell>
        <mxCell id="VmF_ym8PHBI7USA4eRH4-24" value="1...*" style="text;html=1;align=center;verticalAlign=middle;resizable=0;points=[];labelBackgroundColor=#ffffff;" vertex="1" connectable="0" parent="VmF_ym8PHBI7USA4eRH4-22">
          <mxGeometry x="0.8373" y="1" relative="1" as="geometry">
            <mxPoint as="offset" />
          </mxGeometry>
        </mxCell>
        <mxCell id="VmF_ym8PHBI7USA4eRH4-25" value="&lt;span&gt;Campus&lt;/span&gt;" style="verticalAlign=top;align=center;overflow=fill;fontSize=12;fontFamily=Helvetica;html=1;rounded=0;shadow=0;comic=0;labelBackgroundColor=none;strokeWidth=1;fontStyle=5" vertex="1" parent="1">
          <mxGeometry x="20" y="650" width="140" height="30" as="geometry" />
        </mxCell>
        <mxCell id="VmF_ym8PHBI7USA4eRH4-26" style="edgeStyle=none;rounded=0;orthogonalLoop=1;jettySize=auto;html=1;exitX=0;exitY=0.5;exitDx=0;exitDy=0;entryX=0.5;entryY=1;entryDx=0;entryDy=0;endArrow=none;endFill=0;targetPerimeterSpacing=8;" edge="1" parent="1" source="VmF_ym8PHBI7USA4eRH4-29" target="VmF_ym8PHBI7USA4eRH4-10">
          <mxGeometry relative="1" as="geometry">
            <Array as="points">
              <mxPoint x="110" y="525" />
            </Array>
          </mxGeometry>
        </mxCell>
        <mxCell id="VmF_ym8PHBI7USA4eRH4-27" value="0...*-----" style="text;html=1;align=center;verticalAlign=middle;resizable=0;points=[];labelBackgroundColor=#ffffff;" vertex="1" connectable="0" parent="VmF_ym8PHBI7USA4eRH4-26">
          <mxGeometry x="0.9151" y="-1" relative="1" as="geometry">
            <mxPoint as="offset" />
          </mxGeometry>
        </mxCell>
        <mxCell id="VmF_ym8PHBI7USA4eRH4-28" value="0...*" style="text;html=1;align=center;verticalAlign=middle;resizable=0;points=[];labelBackgroundColor=#ffffff;" vertex="1" connectable="0" parent="VmF_ym8PHBI7USA4eRH4-26">
          <mxGeometry x="-0.9004" y="-1" relative="1" as="geometry">
            <mxPoint as="offset" />
          </mxGeometry>
        </mxCell>
        <mxCell id="VmF_ym8PHBI7USA4eRH4-29" value="&lt;span&gt;Room&lt;/span&gt;" style="verticalAlign=top;align=center;overflow=fill;fontSize=12;fontFamily=Helvetica;html=1;rounded=0;shadow=0;comic=0;labelBackgroundColor=none;strokeWidth=1;fontStyle=5" vertex="1" parent="1">
          <mxGeometry x="310" y="510" width="140" height="30" as="geometry" />
        </mxCell>
        <mxCell id="VmF_ym8PHBI7USA4eRH4-30" style="edgeStyle=none;rounded=0;orthogonalLoop=1;jettySize=auto;html=1;exitX=0;exitY=0.5;exitDx=0;exitDy=0;entryX=1;entryY=0.5;entryDx=0;entryDy=0;endArrow=none;endFill=0;targetPerimeterSpacing=8;" edge="1" parent="1" source="VmF_ym8PHBI7USA4eRH4-33" target="VmF_ym8PHBI7USA4eRH4-16">
          <mxGeometry relative="1" as="geometry" />
        </mxCell>
        <mxCell id="VmF_ym8PHBI7USA4eRH4-31" value="0...*" style="text;html=1;align=center;verticalAlign=middle;resizable=0;points=[];labelBackgroundColor=#ffffff;" vertex="1" connectable="0" parent="VmF_ym8PHBI7USA4eRH4-30">
          <mxGeometry x="0.6914" y="-2" relative="1" as="geometry">
            <mxPoint as="offset" />
          </mxGeometry>
        </mxCell>
        <mxCell id="VmF_ym8PHBI7USA4eRH4-32" value="1...*" style="text;html=1;align=center;verticalAlign=middle;resizable=0;points=[];labelBackgroundColor=#ffffff;" vertex="1" connectable="0" parent="VmF_ym8PHBI7USA4eRH4-30">
          <mxGeometry x="-0.7867" y="-1" relative="1" as="geometry">
            <mxPoint as="offset" />
          </mxGeometry>
        </mxCell>
        <mxCell id="VmF_ym8PHBI7USA4eRH4-33" value="&lt;p style=&quot;margin: 4px 0px 0px&quot;&gt;&lt;span&gt;Course&lt;/span&gt;&lt;/p&gt;" style="verticalAlign=top;align=center;overflow=fill;fontSize=12;fontFamily=Helvetica;html=1;rounded=0;shadow=0;comic=0;labelBackgroundColor=none;strokeWidth=1;fontStyle=5" vertex="1" parent="1">
          <mxGeometry x="620" y="440" width="140" height="40" as="geometry" />
        </mxCell>
        <mxCell id="VmF_ym8PHBI7USA4eRH4-34" style="edgeStyle=none;rounded=0;orthogonalLoop=1;jettySize=auto;html=1;exitX=0.75;exitY=0;exitDx=0;exitDy=0;entryX=1;entryY=0.25;entryDx=0;entryDy=0;endArrow=none;endFill=0;targetPerimeterSpacing=8;" edge="1" parent="1" source="VmF_ym8PHBI7USA4eRH4-33" target="VmF_ym8PHBI7USA4eRH4-33">
          <mxGeometry relative="1" as="geometry">
            <Array as="points">
              <mxPoint x="725" y="400" />
              <mxPoint x="760" y="400" />
              <mxPoint x="800" y="400" />
              <mxPoint x="800" y="450" />
            </Array>
          </mxGeometry>
        </mxCell>
        <mxCell id="VmF_ym8PHBI7USA4eRH4-35" value="Requirements" style="text;html=1;align=center;verticalAlign=middle;resizable=0;points=[];labelBackgroundColor=#ffffff;" vertex="1" connectable="0" parent="VmF_ym8PHBI7USA4eRH4-34">
          <mxGeometry x="-0.1785" y="-2" relative="1" as="geometry">
            <mxPoint as="offset" />
          </mxGeometry>
        </mxCell>
      </root>
    </mxGraphModel>
  </diagram>
</mxfile>
